<svg xmlns="http://www.w3.org/2000/svg" fill="#000000" class="bi bi-github" viewBox="-0.8 -0.8 16 16" id="Github--Streamline-Bootstrap" height="16" width="16" style="background-color: #ffffff"><desc>Github Streamline Icon: https://streamlinehq.com</desc><path d="M7.2 0C3.222 0 0 3.222 0 7.2c0 3.186 2.061 5.877000000000001 4.923 6.831 0.36000000000000004 0.06300000000000001 0.49500000000000005 -0.15300000000000002 0.49500000000000005 -0.342 0 -0.171 -0.009000000000000001 -0.738 -0.009000000000000001 -1.341 -1.809 0.333 -2.2769999999999997 -0.441 -2.421 -0.846 -0.081 -0.20700000000000002 -0.432 -0.846 -0.738 -1.017 -0.25200000000000006 -0.135 -0.6120000000000001 -0.468 -0.009000000000000001 -0.47700000000000004 0.5670000000000001 -0.009000000000000001 0.9720000000000001 0.522 1.107 0.738 0.648 1.089 1.683 0.783 2.097 0.5940000000000001 0.06300000000000001 -0.468 0.25200000000000006 -0.783 0.459 -0.9630000000000001 -1.602 -0.18000000000000002 -3.2760000000000002 -0.801 -3.2760000000000002 -3.555 0 -0.783 0.279 -1.431 0.738 -1.935 -0.07200000000000001 -0.18000000000000002 -0.324 -0.918 0.07200000000000001 -1.9080000000000001 0 0 0.6030000000000001 -0.189 1.9800000000000002 0.738 0.5760000000000001 -0.162 1.1880000000000002 -0.24300000000000002 1.8 -0.24300000000000002s1.2240000000000002 0.081 1.8 0.24300000000000002c1.377 -0.936 1.9800000000000002 -0.738 1.9800000000000002 -0.738 0.396 0.9900000000000001 0.14400000000000002 1.728 0.07200000000000001 1.9080000000000001 0.459 0.5040000000000001 0.738 1.143 0.738 1.935 0 2.763 -1.683 3.375 -3.285 3.555 0.261 0.225 0.48600000000000004 0.657 0.48600000000000004 1.332 0 0.9630000000000001 -0.009000000000000001 1.7369999999999999 -0.009000000000000001 1.9800000000000002 0 0.189 0.135 0.41400000000000003 0.49500000000000005 0.342A7.209 7.209 0 0 0 14.4 7.2c0 -3.978 -3.222 -7.2 -7.2 -7.2" stroke-width="1"></path></svg>