<?xml version="1.0" encoding="UTF-8"?>
<svg
  role="img"
  xmlns="http://www.w3.org/2000/svg"
  viewBox="0 0 24 24"
  width="24"
  height="24"
  fill="currentColor"
>
  <title>LinkedIn</title>
  <path d="M20.447 20.452H17.4v-5.569c0-1.328-.025-3.039-1.852-3.039-1.853 0-2.136 1.445-2.136 2.939v5.669h-3.046V9h2.926v1.561h.041c.408-.774 1.404-1.59 2.89-1.59 3.091 0 3.659 2.035 3.659 4.683v6.798zM5.337 7.433a1.768 1.768 0 1 1 .002-3.537 1.768 1.768 0 0 1-.002 3.537zm1.522 13.019H3.82V9h3.04v11.452zM22.225 0H1.771C.792 0 0 .774 0 1.73v20.538C0 23.226.792 24 1.771 24h20.451C23.2 24 24 23.226 24 22.269V1.73C24 .774 23.2 0 22.225 0z"/>
</svg>
